<svg aria-hidden="true" style="position: absolute; width: 0; height: 0; overflow: hidden;" version="1.1" xmlns="http://www.w3.org/2000/svg" xmlns:xlink="http://www.w3.org/1999/xlink">
  <defs>
    <symbol id="accounts" viewBox="0 0 88 88">
      <path fill-rule="evenodd" clip-rule="evenodd" d="M18.9186 12.0231C10.6836 17.9523 4 27.8518 4 44C4 60.1482 10.6836 70.0477 18.9186 75.9769C27.2556 81.9796 37.32 84 44 84C50.68 84 60.7444 81.9796 69.0814 75.9769C77.3164 70.0477 84 60.1482 84 44C84 27.8518 77.3164 17.9523 69.0814 12.0231C60.7444 6.02044 50.68 4 44 4C37.32 4 27.2556 6.02044 18.9186 12.0231ZM16.5814 8.77693C25.7444 2.17956 36.68 0 44 0C51.32 0 62.2556 2.17956 71.4186 8.77693C80.6836 15.4477 88 26.5482 88 44C88 61.4518 80.6836 72.5523 71.4186 79.2231C62.2556 85.8204 51.32 88 44 88C36.68 88 25.7444 85.8204 16.5814 79.2231C7.3164 72.5523 0 61.4518 0 44C0 26.5482 7.3164 15.4477 16.5814 8.77693ZM63.5003 51C60.3003 43 49.1669 41 44.0003 41C32.0005 41 25.667 47.6667 24.0003 51C19.6003 61.4 26.8336 65 31.0003 65.5H32.0003H55.5003C61.5003 65.5 67.5003 61 63.5003 51ZM19.2443 43.6284C14.8443 44.4284 12.0776 48.6284 11.2443 50.6284C9.24432 57.0288 11.7443 60.6283 13.2443 61.6279C15.411 62.4613 19.5443 62.9279 18.7443 58.1279C17.9443 53.3279 20.0776 49.1283 21.2443 47.6284C22.411 45.9617 23.6443 42.8284 19.2443 43.6284ZM76.0975 50.6284C75.2641 48.6284 72.4975 44.4284 68.0975 43.6284C63.6975 42.8284 64.9308 45.9617 66.0975 47.6284C67.2641 49.1283 69.3975 53.3279 68.5975 58.1279C67.7975 62.9279 71.9308 62.4613 74.0975 61.6279C75.5975 60.6283 78.0975 57.0288 76.0975 50.6284ZM50.5005 17.4998C45.3005 13.0998 39.6672 15.6664 37.5005 17.4998C32.7005 21.4996 34.5005 29.3636 36.0005 32.7957C39.7723 38.2606 43.5441 37.6021 46.4774 37.09L46.4782 37.0898C46.6554 37.0589 46.8296 37.0285 47.0005 37C49.0987 36.6503 50.8402 34.6424 51.6905 33.3179C51.7765 33.1981 51.8824 33.0215 52.0005 32.7957C53.2781 30.3533 55.9891 22.144 50.5005 17.4998ZM59.924 26.6304C61.2628 25.4001 64.7436 23.6776 67.9567 26.6304C71.3481 29.7471 69.673 35.2564 68.8836 36.8955C68.8106 37.0471 68.7451 37.1655 68.692 37.246C68.1666 38.1349 67.0905 39.4823 65.7941 39.717C65.6883 39.7361 65.5805 39.7566 65.4709 39.7774L65.4708 39.7774C63.6583 40.1211 61.3277 40.563 58.9972 36.8955C58.0703 34.5922 56.9581 29.3147 59.924 26.6304ZM27.9567 26.6304C24.7436 23.6776 21.2628 25.4001 19.924 26.6304C16.9581 29.3147 18.0703 34.5922 18.9972 36.8955C21.3277 40.563 23.6583 40.1211 25.4708 39.7774C25.5805 39.7566 25.6883 39.7362 25.7941 39.717C27.0905 39.4823 28.1666 38.1349 28.692 37.246C28.7451 37.1655 28.8106 37.0471 28.8836 36.8955C29.673 35.2564 31.3481 29.7471 27.9567 26.6304Z"></path>
    </symbol>
    <symbol id="dashboard" viewBox="0 0 24 24">
      <svg width="24" height="24" fill="currentColor">
        <path d="M4 18h16.008C20 18 20 6 20 6H3.992C4 6 4 18 4 18zM2 5.994C2 4.893 2.898 4 3.99 4h16.02C21.108 4 22 4.895 22 5.994v12.012A1.997 1.997 0 0120.01 20H3.99A1.994 1.994 0 012 18.006V5.994z"></path>
        <path d="M8 6v12h2V6zm6 0v12h2V6z"></path>
        </g>
      </svg>
    </symbol>
    <symbol id="report" viewBox="0 0 24 24">
      <svg width="24" height="24">
        <path d="M21 17H4.995C4.448 17 4 16.548 4 15.991V6a1 1 0 10-2 0v9.991A3.004 3.004 0 004.995 19H21a1 1 0 000-2zm-3-8v3a1 1 0 002 0V8a1 1 0 00-1-1h-4a1 1 0 000 2h3z"></path>
        <path d="M13.293 13.707a1 1 0 001.414 0l4-4a1 1 0 10-1.414-1.414L14 11.586l-2.293-2.293a1 1 0 00-1.414 0l-4 4a1 1 0 001.414 1.414L11 11.414l2.293 2.293z"></path>
        </g>
      </svg>
    </symbol>
    <symbol id="releases" viewBox="0 0 24 24">
      <svg width="24" height="24" viewBox="0 0 24 24">
        <g fill="currentColor" fill-rule="evenodd">
          <path d="M6 12h8v-2H6v2zM4 8.99C4 8.445 4.456 8 5.002 8h9.996C15.55 8 16 8.451 16 8.99V14H4V8.99z" fill-rule="nonzero"></path>
          <path d="M6 7.005C6 5.898 6.898 5 7.998 5h2.004C11.106 5 12 5.894 12 7.005V10H6V7.005zm4 0V7H7.999c.005 0 .002.003.002.005V8h2v-.995z"></path>
          <path d="M4.5 17h13.994l1.002-3H4.14l.36 3zm-2.495-4.012A.862.862 0 012.883 12h18.393c.55 0 .857.417.681.944l-1.707 5.112c-.174.521-.758.944-1.315.944H3.725a1.149 1.149 0 01-1.118-.988l-.602-5.024z" fill-rule="nonzero"></path>
        </g>
      </svg>
    </symbol>
    <symbol id="issue" viewBox="0 0 24 24">
      <svg width="24" height="24" viewBox="0 0 24 24">
        <g fill="currentColor" fill-rule="evenodd">
          <path d="M5 12.991c0 .007 14.005.009 14.005.009C18.999 13 19 5.009 19 5.009 19 5.002 4.995 5 4.995 5 5.001 5 5 12.991 5 12.991zM3 5.01C3 3.899 3.893 3 4.995 3h14.01C20.107 3 21 3.902 21 5.009v7.982c0 1.11-.893 2.009-1.995 2.009H4.995A2.004 2.004 0 013 12.991V5.01zM19 19c-.005 1.105-.9 2-2.006 2H7.006A2.009 2.009 0 015 19h14zm1-3a2.002 2.002 0 01-1.994 2H5.994A2.003 2.003 0 014 16h16z" fill-rule="nonzero"></path>
          <path d="M10.674 11.331c.36.36.941.36 1.3 0l2.758-2.763a.92.92 0 00-1.301-1.298l-2.108 2.11-.755-.754a.92.92 0 00-1.3 1.3l1.406 1.405z"></path>
        </g>
      </svg>
    </symbol>
  </defs>
</svg>